<mxfile host="app.diagrams.net" modified="2022-02-12T08:47:35.448Z" agent="5.0 (Windows NT 10.0; Win64; x64) AppleWebKit/537.36 (KHTML, like Gecko) Chrome/98.0.4758.82 Safari/537.36" etag="nOoyO6Va1BUJF5XibMPo" version="16.5.6" type="github">
  <diagram id="lRbjlEgUrdlbDKfCzqoT" name="Page-1">
    <mxGraphModel dx="1583" dy="706" grid="1" gridSize="10" guides="1" tooltips="1" connect="1" arrows="1" fold="1" page="1" pageScale="1" pageWidth="1169" pageHeight="1654" math="0" shadow="0">
      <root>
        <mxCell id="0" />
        <mxCell id="1" parent="0" />
        <mxCell id="BKtQM3NTSzy28nzEHx1F-3" value="&lt;font style=&quot;font-size: 19px;&quot;&gt;Data Cleaning&lt;/font&gt;" style="text;html=1;strokeColor=none;fillColor=none;align=center;verticalAlign=middle;whiteSpace=wrap;rounded=0;fontSize=19;" vertex="1" parent="1">
          <mxGeometry x="30" y="30" width="160" height="80" as="geometry" />
        </mxCell>
        <mxCell id="BKtQM3NTSzy28nzEHx1F-4" value="&lt;font style=&quot;font-size: 19px&quot;&gt;Columns Selection&lt;/font&gt;" style="text;html=1;strokeColor=none;fillColor=none;align=center;verticalAlign=middle;whiteSpace=wrap;rounded=0;fontSize=19;" vertex="1" parent="1">
          <mxGeometry x="40" y="200" width="160" height="80" as="geometry" />
        </mxCell>
        <mxCell id="BKtQM3NTSzy28nzEHx1F-5" value="&lt;font style=&quot;font-size: 19px&quot;&gt;Univariate Analysis&lt;/font&gt;" style="text;html=1;strokeColor=none;fillColor=none;align=center;verticalAlign=middle;whiteSpace=wrap;rounded=0;fontSize=19;" vertex="1" parent="1">
          <mxGeometry x="40" y="280" width="160" height="80" as="geometry" />
        </mxCell>
        <mxCell id="BKtQM3NTSzy28nzEHx1F-6" value="&lt;font style=&quot;font-size: 19px&quot;&gt;Bivariate Analysis&lt;/font&gt;" style="text;html=1;strokeColor=none;fillColor=none;align=center;verticalAlign=middle;whiteSpace=wrap;rounded=0;fontSize=19;" vertex="1" parent="1">
          <mxGeometry x="50" y="360" width="160" height="80" as="geometry" />
        </mxCell>
        <mxCell id="BKtQM3NTSzy28nzEHx1F-7" value="&lt;font style=&quot;font-size: 19px&quot;&gt;Multivariate Analysis&lt;/font&gt;" style="text;html=1;strokeColor=none;fillColor=none;align=center;verticalAlign=middle;whiteSpace=wrap;rounded=0;fontSize=19;" vertex="1" parent="1">
          <mxGeometry x="40" y="120" width="160" height="80" as="geometry" />
        </mxCell>
        <mxCell id="BKtQM3NTSzy28nzEHx1F-8" value="&lt;font style=&quot;font-size: 19px&quot;&gt;user&lt;/font&gt;" style="text;html=1;strokeColor=none;fillColor=none;align=center;verticalAlign=middle;whiteSpace=wrap;rounded=0;fontSize=19;" vertex="1" parent="1">
          <mxGeometry x="310" y="30" width="160" height="80" as="geometry" />
        </mxCell>
        <mxCell id="BKtQM3NTSzy28nzEHx1F-9" value="&lt;font style=&quot;font-size: 19px&quot;&gt;Admin&lt;/font&gt;" style="text;html=1;strokeColor=none;fillColor=none;align=center;verticalAlign=middle;whiteSpace=wrap;rounded=0;fontSize=19;" vertex="1" parent="1">
          <mxGeometry x="310" y="110" width="160" height="80" as="geometry" />
        </mxCell>
        <mxCell id="BKtQM3NTSzy28nzEHx1F-10" value="&lt;font style=&quot;font-size: 19px&quot;&gt;products&lt;/font&gt;" style="text;html=1;strokeColor=none;fillColor=none;align=center;verticalAlign=middle;whiteSpace=wrap;rounded=0;fontSize=19;" vertex="1" parent="1">
          <mxGeometry x="550" y="30" width="160" height="80" as="geometry" />
        </mxCell>
        <mxCell id="BKtQM3NTSzy28nzEHx1F-11" value="&lt;font style=&quot;font-size: 19px&quot;&gt;reviews&lt;/font&gt;" style="text;html=1;strokeColor=none;fillColor=none;align=center;verticalAlign=middle;whiteSpace=wrap;rounded=0;fontSize=19;" vertex="1" parent="1">
          <mxGeometry x="550" y="110" width="160" height="80" as="geometry" />
        </mxCell>
        <mxCell id="BKtQM3NTSzy28nzEHx1F-12" value="&lt;font style=&quot;font-size: 19px&quot;&gt;quantity&lt;/font&gt;" style="text;html=1;strokeColor=none;fillColor=none;align=center;verticalAlign=middle;whiteSpace=wrap;rounded=0;fontSize=19;" vertex="1" parent="1">
          <mxGeometry x="550" y="180" width="160" height="80" as="geometry" />
        </mxCell>
        <mxCell id="BKtQM3NTSzy28nzEHx1F-29" style="edgeStyle=orthogonalEdgeStyle;rounded=0;orthogonalLoop=1;jettySize=auto;html=1;exitX=1;exitY=0.5;exitDx=0;exitDy=0;entryX=0;entryY=0.5;entryDx=0;entryDy=0;fontSize=19;" edge="1" parent="1" source="BKtQM3NTSzy28nzEHx1F-14" target="BKtQM3NTSzy28nzEHx1F-17">
          <mxGeometry relative="1" as="geometry" />
        </mxCell>
        <mxCell id="BKtQM3NTSzy28nzEHx1F-14" value="User" style="rounded=1;whiteSpace=wrap;html=1;fontSize=19;arcSize=0;" vertex="1" parent="1">
          <mxGeometry x="90" y="1040" width="120" height="60" as="geometry" />
        </mxCell>
        <mxCell id="BKtQM3NTSzy28nzEHx1F-22" style="edgeStyle=orthogonalEdgeStyle;rounded=0;orthogonalLoop=1;jettySize=auto;html=1;fontSize=19;" edge="1" parent="1" source="BKtQM3NTSzy28nzEHx1F-15" target="BKtQM3NTSzy28nzEHx1F-16">
          <mxGeometry relative="1" as="geometry" />
        </mxCell>
        <mxCell id="BKtQM3NTSzy28nzEHx1F-15" value="Admin" style="rounded=1;whiteSpace=wrap;html=1;fontSize=19;arcSize=0;" vertex="1" parent="1">
          <mxGeometry x="70" y="500" width="120" height="60" as="geometry" />
        </mxCell>
        <mxCell id="BKtQM3NTSzy28nzEHx1F-25" style="edgeStyle=orthogonalEdgeStyle;rounded=0;orthogonalLoop=1;jettySize=auto;html=1;exitX=1;exitY=1;exitDx=0;exitDy=0;entryX=0;entryY=0.5;entryDx=0;entryDy=0;fontSize=19;" edge="1" parent="1" source="BKtQM3NTSzy28nzEHx1F-16" target="BKtQM3NTSzy28nzEHx1F-20">
          <mxGeometry relative="1" as="geometry" />
        </mxCell>
        <mxCell id="BKtQM3NTSzy28nzEHx1F-16" value="Data Cleaning" style="ellipse;whiteSpace=wrap;html=1;aspect=fixed;fontSize=19;" vertex="1" parent="1">
          <mxGeometry x="330" y="450" width="160" height="160" as="geometry" />
        </mxCell>
        <mxCell id="BKtQM3NTSzy28nzEHx1F-32" style="edgeStyle=orthogonalEdgeStyle;rounded=0;orthogonalLoop=1;jettySize=auto;html=1;exitX=1;exitY=1;exitDx=0;exitDy=0;entryX=0.004;entryY=0.453;entryDx=0;entryDy=0;entryPerimeter=0;fontSize=19;" edge="1" parent="1" source="BKtQM3NTSzy28nzEHx1F-17" target="BKtQM3NTSzy28nzEHx1F-18">
          <mxGeometry relative="1" as="geometry" />
        </mxCell>
        <mxCell id="BKtQM3NTSzy28nzEHx1F-33" style="edgeStyle=orthogonalEdgeStyle;rounded=0;orthogonalLoop=1;jettySize=auto;html=1;exitX=0.5;exitY=1;exitDx=0;exitDy=0;fontSize=19;" edge="1" parent="1" source="BKtQM3NTSzy28nzEHx1F-17" target="BKtQM3NTSzy28nzEHx1F-19">
          <mxGeometry relative="1" as="geometry" />
        </mxCell>
        <mxCell id="BKtQM3NTSzy28nzEHx1F-17" value="Column Selection" style="ellipse;whiteSpace=wrap;html=1;aspect=fixed;fontSize=19;" vertex="1" parent="1">
          <mxGeometry x="290" y="667" width="160" height="160" as="geometry" />
        </mxCell>
        <mxCell id="BKtQM3NTSzy28nzEHx1F-37" style="edgeStyle=orthogonalEdgeStyle;rounded=0;orthogonalLoop=1;jettySize=auto;html=1;fontSize=19;" edge="1" parent="1" source="BKtQM3NTSzy28nzEHx1F-18" target="BKtQM3NTSzy28nzEHx1F-36">
          <mxGeometry relative="1" as="geometry" />
        </mxCell>
        <mxCell id="BKtQM3NTSzy28nzEHx1F-18" value="Univariate Analysis" style="ellipse;whiteSpace=wrap;html=1;aspect=fixed;fontSize=19;" vertex="1" parent="1">
          <mxGeometry x="620" y="690" width="160" height="160" as="geometry" />
        </mxCell>
        <mxCell id="BKtQM3NTSzy28nzEHx1F-38" style="edgeStyle=orthogonalEdgeStyle;rounded=0;orthogonalLoop=1;jettySize=auto;html=1;entryX=0;entryY=0.5;entryDx=0;entryDy=0;fontSize=19;" edge="1" parent="1" source="BKtQM3NTSzy28nzEHx1F-19" target="BKtQM3NTSzy28nzEHx1F-36">
          <mxGeometry relative="1" as="geometry" />
        </mxCell>
        <mxCell id="BKtQM3NTSzy28nzEHx1F-19" value="Multivariate Analysis" style="ellipse;whiteSpace=wrap;html=1;aspect=fixed;fontSize=19;" vertex="1" parent="1">
          <mxGeometry x="330" y="940" width="160" height="160" as="geometry" />
        </mxCell>
        <mxCell id="BKtQM3NTSzy28nzEHx1F-24" style="edgeStyle=orthogonalEdgeStyle;rounded=0;orthogonalLoop=1;jettySize=auto;html=1;exitX=0.5;exitY=0;exitDx=0;exitDy=0;entryX=1;entryY=0.5;entryDx=0;entryDy=0;fontSize=19;" edge="1" parent="1" source="BKtQM3NTSzy28nzEHx1F-20" target="BKtQM3NTSzy28nzEHx1F-16">
          <mxGeometry relative="1" as="geometry" />
        </mxCell>
        <mxCell id="BKtQM3NTSzy28nzEHx1F-28" style="edgeStyle=orthogonalEdgeStyle;rounded=0;orthogonalLoop=1;jettySize=auto;html=1;exitX=0;exitY=1;exitDx=0;exitDy=0;fontSize=19;" edge="1" parent="1" source="BKtQM3NTSzy28nzEHx1F-20" target="BKtQM3NTSzy28nzEHx1F-17">
          <mxGeometry relative="1" as="geometry" />
        </mxCell>
        <mxCell id="BKtQM3NTSzy28nzEHx1F-20" value="d1&amp;nbsp; products" style="html=1;dashed=0;whitespace=wrap;shape=mxgraph.dfd.dataStoreID;align=left;spacingLeft=3;points=[[0,0],[0.5,0],[1,0],[0,0.5],[1,0.5],[0,1],[0.5,1],[1,1]];fontSize=19;" vertex="1" parent="1">
          <mxGeometry x="490" y="640" width="140" height="40" as="geometry" />
        </mxCell>
        <mxCell id="BKtQM3NTSzy28nzEHx1F-26" value="update info" style="text;html=1;align=center;verticalAlign=middle;resizable=0;points=[];autosize=1;strokeColor=none;fillColor=none;fontSize=19;" vertex="1" parent="1">
          <mxGeometry x="200" y="500" width="110" height="30" as="geometry" />
        </mxCell>
        <mxCell id="BKtQM3NTSzy28nzEHx1F-30" value="colname" style="text;html=1;align=center;verticalAlign=middle;resizable=0;points=[];autosize=1;strokeColor=none;fillColor=none;fontSize=19;" vertex="1" parent="1">
          <mxGeometry x="160" y="820" width="90" height="30" as="geometry" />
        </mxCell>
        <mxCell id="BKtQM3NTSzy28nzEHx1F-34" value="selected col" style="text;html=1;align=center;verticalAlign=middle;resizable=0;points=[];autosize=1;strokeColor=none;fillColor=none;fontSize=19;" vertex="1" parent="1">
          <mxGeometry x="445" y="810" width="120" height="30" as="geometry" />
        </mxCell>
        <mxCell id="BKtQM3NTSzy28nzEHx1F-35" value="selected col" style="text;html=1;align=center;verticalAlign=middle;resizable=0;points=[];autosize=1;strokeColor=none;fillColor=none;fontSize=19;" vertex="1" parent="1">
          <mxGeometry x="410" y="890" width="120" height="30" as="geometry" />
        </mxCell>
        <mxCell id="BKtQM3NTSzy28nzEHx1F-39" style="edgeStyle=orthogonalEdgeStyle;rounded=0;orthogonalLoop=1;jettySize=auto;html=1;entryX=0.5;entryY=1;entryDx=0;entryDy=0;fontSize=19;exitX=0.5;exitY=1;exitDx=0;exitDy=0;" edge="1" parent="1" source="BKtQM3NTSzy28nzEHx1F-36" target="BKtQM3NTSzy28nzEHx1F-14">
          <mxGeometry relative="1" as="geometry" />
        </mxCell>
        <mxCell id="BKtQM3NTSzy28nzEHx1F-36" value="Result Viewer" style="ellipse;whiteSpace=wrap;html=1;aspect=fixed;fontSize=19;" vertex="1" parent="1">
          <mxGeometry x="585" y="940" width="160" height="160" as="geometry" />
        </mxCell>
        <mxCell id="BKtQM3NTSzy28nzEHx1F-40" value="output" style="text;html=1;align=center;verticalAlign=middle;resizable=0;points=[];autosize=1;strokeColor=none;fillColor=none;fontSize=19;" vertex="1" parent="1">
          <mxGeometry x="390" y="1130" width="70" height="30" as="geometry" />
        </mxCell>
        <mxCell id="BKtQM3NTSzy28nzEHx1F-41" value="generated&amp;nbsp; graph" style="text;html=1;align=center;verticalAlign=middle;resizable=0;points=[];autosize=1;strokeColor=none;fillColor=none;fontSize=19;" vertex="1" parent="1">
          <mxGeometry x="565" y="900" width="160" height="30" as="geometry" />
        </mxCell>
      </root>
    </mxGraphModel>
  </diagram>
</mxfile>